<svg width="24" height="24" viewBox="0 0 24 24" fill="none" xmlns="http://www.w3.org/2000/svg">
<path d="M14 20L13.293 20.707L14 21.414L14.707 20.707L14 20ZM6 3C5.73478 3 5.48043 3.10536 5.29289 3.29289C5.10536 3.48043 5 3.73478 5 4C5 4.26522 5.10536 4.51957 5.29289 4.70711C5.48043 4.89464 5.73478 5 6 5V3ZM8.293 15.707L13.293 20.707L14.707 19.293L9.707 14.293L8.293 15.707ZM14.707 20.707L19.707 15.707L18.293 14.293L13.293 19.293L14.707 20.707ZM15 20V10H13V20H15ZM8 3H6V5H8V3ZM15 10C15 8.14348 14.2625 6.36301 12.9497 5.05025C11.637 3.7375 9.85652 3 8 3V5C9.32608 5 10.5979 5.52678 11.5355 6.46447C12.4732 7.40215 13 8.67392 13 10H15Z" fill="#F7F7F7"/>
</svg>
