<svg width="201" height="42" viewBox="0 0 201 42" fill="none" xmlns="http://www.w3.org/2000/svg">
<path d="M21.3356 21.1406C21.3356 21.8594 21.1716 22.3906 20.8434 22.7344C20.5309 23.0781 20.0934 23.25 19.5309 23.25H6.80437C6.80437 24.1406 6.90594 24.9531 7.10906 25.6875C7.32781 26.4062 7.66375 27.0234 8.11687 27.5391C8.58562 28.0391 9.17937 28.4219 9.89812 28.6875C10.6325 28.9531 11.5075 29.0859 12.5231 29.0859C13.5544 29.0859 14.4606 29.0156 15.2419 28.875C16.0231 28.7188 16.695 28.5547 17.2575 28.3828C17.8356 28.1953 18.3122 28.0312 18.6872 27.8906C19.0622 27.7344 19.3669 27.6562 19.6012 27.6562C19.7419 27.6562 19.8591 27.6875 19.9528 27.75C20.0466 27.7969 20.1247 27.8906 20.1872 28.0312C20.2497 28.1719 20.2887 28.375 20.3044 28.6406C20.3356 28.8906 20.3512 29.2109 20.3512 29.6016C20.3512 29.9453 20.3434 30.2422 20.3278 30.4922C20.3122 30.7266 20.2887 30.9297 20.2575 31.1016C20.2262 31.2734 20.1794 31.4219 20.1169 31.5469C20.0544 31.6562 19.9684 31.7656 19.8591 31.875C19.7653 31.9844 19.4919 32.1328 19.0387 32.3203C18.5856 32.5078 18.0075 32.6953 17.3044 32.8828C16.6012 33.0547 15.7966 33.2031 14.8903 33.3281C13.9841 33.4688 13.0153 33.5391 11.9841 33.5391C10.1247 33.5391 8.49187 33.3047 7.08562 32.8359C5.695 32.3672 4.53094 31.6562 3.59344 30.7031C2.65594 29.75 1.95281 28.5469 1.48406 27.0938C1.03094 25.6406 0.804375 23.9375 0.804375 21.9844C0.804375 20.125 1.04656 18.4531 1.53094 16.9688C2.01531 15.4688 2.71844 14.2031 3.64031 13.1719C4.56219 12.125 5.67937 11.3281 6.99187 10.7812C8.32 10.2344 9.81219 9.96094 11.4684 9.96094C13.2184 9.96094 14.7106 10.2188 15.945 10.7344C17.195 11.25 18.2184 11.9688 19.0153 12.8906C19.8122 13.7969 20.3981 14.875 20.7731 16.125C21.1481 17.375 21.3356 18.7344 21.3356 20.2031V21.1406ZM15.6169 19.4531C15.6637 17.7969 15.3278 16.5 14.6091 15.5625C13.9059 14.6094 12.8122 14.1328 11.3278 14.1328C10.5778 14.1328 9.92156 14.2734 9.35906 14.5547C8.81219 14.8359 8.35125 15.2188 7.97625 15.7031C7.61687 16.1719 7.33562 16.7344 7.1325 17.3906C6.945 18.0312 6.83562 18.7188 6.80437 19.4531H15.6169ZM49.1775 21.4688C49.1775 23.3281 48.9744 25 48.5681 26.4844C48.1619 27.9688 47.5759 29.2344 46.8103 30.2812C46.0447 31.3281 45.0994 32.1328 43.9744 32.6953C42.865 33.2578 41.5994 33.5391 40.1775 33.5391C39.4744 33.5391 38.8181 33.4688 38.2087 33.3281C37.5994 33.2031 37.0134 32.9922 36.4509 32.6953C35.9041 32.3984 35.3572 32.0234 34.8103 31.5703C34.2791 31.1172 33.7322 30.5703 33.1697 29.9297V32.2031C33.1697 32.375 33.1228 32.5234 33.0291 32.6484C32.9509 32.7578 32.8103 32.8516 32.6072 32.9297C32.4197 33.0078 32.1619 33.0625 31.8337 33.0938C31.5056 33.125 31.1072 33.1406 30.6384 33.1406C30.1541 33.1406 29.7478 33.125 29.4197 33.0938C29.1072 33.0625 28.8494 33.0078 28.6462 32.9297C28.4587 32.8516 28.3259 32.7578 28.2478 32.6484C28.1697 32.5234 28.1306 32.375 28.1306 32.2031V1.38281C28.1306 1.22656 28.1775 1.08594 28.2712 0.960938C28.365 0.835938 28.5212 0.734375 28.74 0.65625C28.9744 0.5625 29.2791 0.492188 29.6541 0.445312C30.0291 0.398438 30.5056 0.375 31.0837 0.375C31.6619 0.375 32.1384 0.398438 32.5134 0.445312C32.8884 0.492188 33.1853 0.5625 33.4041 0.65625C33.6384 0.734375 33.8025 0.835938 33.8962 0.960938C33.99 1.08594 34.0369 1.22656 34.0369 1.38281V12.9375C34.5681 12.4062 35.0994 11.9531 35.6306 11.5781C36.1619 11.2031 36.6931 10.8984 37.2244 10.6641C37.7556 10.4141 38.3025 10.2344 38.865 10.125C39.4275 10.0156 40.0212 9.96094 40.6462 9.96094C42.1931 9.96094 43.5056 10.2734 44.5837 10.8984C45.6619 11.5078 46.5369 12.3359 47.2087 13.3828C47.8962 14.4297 48.3962 15.6562 48.7087 17.0625C49.0212 18.4531 49.1775 19.9219 49.1775 21.4688ZM43.0603 21.8906C43.0603 21 42.99 20.1406 42.8494 19.3125C42.7244 18.4844 42.4978 17.75 42.1697 17.1094C41.8416 16.4688 41.4119 15.9609 40.8806 15.5859C40.365 15.1953 39.7087 15 38.9119 15C38.5212 15 38.1384 15.0547 37.7634 15.1641C37.3884 15.2734 36.9978 15.4609 36.5916 15.7266C36.2009 15.9922 35.7947 16.3359 35.3728 16.7578C34.9509 17.1797 34.5056 17.7031 34.0369 18.3281V25.2656C34.865 26.3281 35.6541 27.1406 36.4041 27.7031C37.1697 28.25 37.9666 28.5234 38.7947 28.5234C39.5603 28.5234 40.2087 28.3281 40.74 27.9375C41.2712 27.5469 41.7087 27.0391 42.0525 26.4141C42.4119 25.7891 42.6697 25.0781 42.8259 24.2812C42.9822 23.4844 43.0603 22.6875 43.0603 21.8906ZM73.6444 32.2734C73.6444 32.4922 73.5662 32.6641 73.41 32.7891C73.2537 32.9141 73.0037 33 72.66 33.0469C72.3319 33.1094 71.8397 33.1406 71.1834 33.1406C70.4803 33.1406 69.9647 33.1094 69.6366 33.0469C69.3241 33 69.0975 32.9141 68.9569 32.7891C68.8319 32.6641 68.7694 32.4922 68.7694 32.2734V30.6094C67.91 31.5312 66.9256 32.25 65.8162 32.7656C64.7225 33.2812 63.5037 33.5391 62.16 33.5391C61.0506 33.5391 60.0272 33.3906 59.0897 33.0938C58.1678 32.8125 57.3631 32.3906 56.6756 31.8281C56.0037 31.25 55.4803 30.5391 55.1053 29.6953C54.7303 28.8516 54.5428 27.8672 54.5428 26.7422C54.5428 25.5234 54.7772 24.4688 55.2459 23.5781C55.7303 22.6719 56.4412 21.9297 57.3787 21.3516C58.3319 20.7578 59.5116 20.3203 60.9178 20.0391C62.3241 19.7578 63.9569 19.6172 65.8162 19.6172H67.8553V18.3516C67.8553 17.6953 67.785 17.125 67.6444 16.6406C67.5194 16.1406 67.3006 15.7266 66.9881 15.3984C66.6912 15.0703 66.285 14.8281 65.7694 14.6719C65.2694 14.5156 64.6444 14.4375 63.8944 14.4375C62.91 14.4375 62.0272 14.5469 61.2459 14.7656C60.4803 14.9844 59.8006 15.2266 59.2069 15.4922C58.6131 15.7578 58.1131 16 57.7069 16.2188C57.3162 16.4375 56.9959 16.5469 56.7459 16.5469C56.5741 16.5469 56.4178 16.4922 56.2772 16.3828C56.1522 16.2734 56.0428 16.1172 55.9491 15.9141C55.8709 15.7109 55.8084 15.4609 55.7616 15.1641C55.7147 14.8672 55.6912 14.5391 55.6912 14.1797C55.6912 13.6953 55.7303 13.3125 55.8084 13.0312C55.8866 12.75 56.035 12.5 56.2537 12.2812C56.4725 12.0469 56.8553 11.7969 57.4022 11.5312C57.9491 11.25 58.5897 10.9922 59.3241 10.7578C60.0584 10.5234 60.8553 10.3359 61.7147 10.1953C62.5897 10.0391 63.4881 9.96094 64.41 9.96094C66.0506 9.96094 67.4491 10.125 68.6053 10.4531C69.7772 10.7656 70.7381 11.2578 71.4881 11.9297C72.2381 12.5859 72.785 13.4375 73.1287 14.4844C73.4725 15.5312 73.6444 16.7734 73.6444 18.2109V32.2734ZM67.8553 23.3203H65.6053C64.6522 23.3203 63.8397 23.3906 63.1678 23.5312C62.4959 23.6719 61.9491 23.8828 61.5272 24.1641C61.1053 24.4453 60.7928 24.7891 60.5897 25.1953C60.4022 25.5859 60.3084 26.0391 60.3084 26.5547C60.3084 27.4297 60.5819 28.1172 61.1287 28.6172C61.6912 29.1172 62.4647 29.3672 63.4491 29.3672C64.2772 29.3672 65.035 29.1562 65.7225 28.7344C66.4256 28.3125 67.1366 27.6953 67.8553 26.8828V23.3203ZM87.3769 32.2031C87.3769 32.3594 87.33 32.5 87.2363 32.625C87.1425 32.7344 86.9784 32.8281 86.7441 32.9062C86.5253 32.9844 86.2284 33.0391 85.8534 33.0703C85.4784 33.1172 85.0019 33.1406 84.4238 33.1406C83.8456 33.1406 83.3691 33.1172 82.9941 33.0703C82.6191 33.0391 82.3144 32.9844 82.08 32.9062C81.8613 32.8281 81.705 32.7344 81.6113 32.625C81.5175 32.5 81.4706 32.3594 81.4706 32.2031V11.3438C81.4706 11.1875 81.5175 11.0547 81.6113 10.9453C81.705 10.8203 81.8613 10.7188 82.08 10.6406C82.3144 10.5469 82.6191 10.4766 82.9941 10.4297C83.3691 10.3828 83.8456 10.3594 84.4238 10.3594C85.0019 10.3594 85.4784 10.3828 85.8534 10.4297C86.2284 10.4766 86.5253 10.5469 86.7441 10.6406C86.9784 10.7188 87.1425 10.8203 87.2363 10.9453C87.33 11.0547 87.3769 11.1875 87.3769 11.3438V32.2031ZM87.8222 4.21875C87.8222 5.40625 87.58 6.22656 87.0956 6.67969C86.6113 7.13281 85.7128 7.35938 84.4003 7.35938C83.0722 7.35938 82.1738 7.14063 81.705 6.70312C81.2519 6.26562 81.0253 5.47656 81.0253 4.33594C81.0253 3.14844 81.2597 2.32812 81.7284 1.875C82.2128 1.40625 83.1191 1.17188 84.4472 1.17188C85.7597 1.17188 86.6503 1.39844 87.1191 1.85156C87.5878 2.28906 87.8222 3.07812 87.8222 4.21875ZM101.109 32.2031C101.109 32.3594 101.062 32.5 100.969 32.625C100.875 32.7344 100.711 32.8281 100.477 32.9062C100.258 32.9844 99.9609 33.0391 99.5859 33.0703C99.2109 33.1172 98.7344 33.1406 98.1562 33.1406C97.5781 33.1406 97.1016 33.1172 96.7266 33.0703C96.3516 33.0391 96.0469 32.9844 95.8125 32.9062C95.5938 32.8281 95.4375 32.7344 95.3438 32.625C95.25 32.5 95.2031 32.3594 95.2031 32.2031V1.38281C95.2031 1.22656 95.25 1.08594 95.3438 0.960938C95.4375 0.835938 95.5938 0.734375 95.8125 0.65625C96.0469 0.5625 96.3516 0.492188 96.7266 0.445312C97.1016 0.398438 97.5781 0.375 98.1562 0.375C98.7344 0.375 99.2109 0.398438 99.5859 0.445312C99.9609 0.492188 100.258 0.5625 100.477 0.65625C100.711 0.734375 100.875 0.835938 100.969 0.960938C101.062 1.08594 101.109 1.22656 101.109 1.38281V32.2031ZM126.748 32.2734C126.748 32.4922 126.67 32.6641 126.514 32.7891C126.357 32.9141 126.107 33 125.764 33.0469C125.436 33.1094 124.943 33.1406 124.287 33.1406C123.584 33.1406 123.068 33.1094 122.74 33.0469C122.428 33 122.201 32.9141 122.061 32.7891C121.936 32.6641 121.873 32.4922 121.873 32.2734V30.6094C121.014 31.5312 120.029 32.25 118.92 32.7656C117.826 33.2812 116.607 33.5391 115.264 33.5391C114.154 33.5391 113.131 33.3906 112.193 33.0938C111.272 32.8125 110.467 32.3906 109.779 31.8281C109.107 31.25 108.584 30.5391 108.209 29.6953C107.834 28.8516 107.647 27.8672 107.647 26.7422C107.647 25.5234 107.881 24.4688 108.35 23.5781C108.834 22.6719 109.545 21.9297 110.482 21.3516C111.436 20.7578 112.615 20.3203 114.022 20.0391C115.428 19.7578 117.061 19.6172 118.92 19.6172H120.959V18.3516C120.959 17.6953 120.889 17.125 120.748 16.6406C120.623 16.1406 120.404 15.7266 120.092 15.3984C119.795 15.0703 119.389 14.8281 118.873 14.6719C118.373 14.5156 117.748 14.4375 116.998 14.4375C116.014 14.4375 115.131 14.5469 114.35 14.7656C113.584 14.9844 112.904 15.2266 112.311 15.4922C111.717 15.7578 111.217 16 110.811 16.2188C110.42 16.4375 110.1 16.5469 109.85 16.5469C109.678 16.5469 109.522 16.4922 109.381 16.3828C109.256 16.2734 109.147 16.1172 109.053 15.9141C108.975 15.7109 108.912 15.4609 108.865 15.1641C108.818 14.8672 108.795 14.5391 108.795 14.1797C108.795 13.6953 108.834 13.3125 108.912 13.0312C108.99 12.75 109.139 12.5 109.357 12.2812C109.576 12.0469 109.959 11.7969 110.506 11.5312C111.053 11.25 111.693 10.9922 112.428 10.7578C113.162 10.5234 113.959 10.3359 114.818 10.1953C115.693 10.0391 116.592 9.96094 117.514 9.96094C119.154 9.96094 120.553 10.125 121.709 10.4531C122.881 10.7656 123.842 11.2578 124.592 11.9297C125.342 12.5859 125.889 13.4375 126.232 14.4844C126.576 15.5312 126.748 16.7734 126.748 18.2109V32.2734ZM120.959 23.3203H118.709C117.756 23.3203 116.943 23.3906 116.272 23.5312C115.6 23.6719 115.053 23.8828 114.631 24.1641C114.209 24.4453 113.897 24.7891 113.693 25.1953C113.506 25.5859 113.412 26.0391 113.412 26.5547C113.412 27.4297 113.686 28.1172 114.232 28.6172C114.795 29.1172 115.568 29.3672 116.553 29.3672C117.381 29.3672 118.139 29.1562 118.826 28.7344C119.529 28.3125 120.24 27.6953 120.959 26.8828V23.3203ZM154.543 32.2031C154.543 32.3594 154.496 32.5 154.402 32.625C154.309 32.7344 154.152 32.8281 153.934 32.9062C153.715 32.9844 153.41 33.0391 153.02 33.0703C152.645 33.1172 152.176 33.1406 151.613 33.1406C151.035 33.1406 150.551 33.1172 150.16 33.0703C149.785 33.0391 149.488 32.9844 149.27 32.9062C149.051 32.8281 148.895 32.7344 148.801 32.625C148.707 32.5 148.66 32.3594 148.66 32.2031V20.2734C148.66 19.2578 148.582 18.4609 148.426 17.8828C148.285 17.3047 148.074 16.8125 147.793 16.4062C147.512 15.9844 147.145 15.6641 146.692 15.4453C146.254 15.2109 145.738 15.0938 145.145 15.0938C144.395 15.0938 143.637 15.3672 142.871 15.9141C142.106 16.4609 141.309 17.2578 140.481 18.3047V32.2031C140.481 32.3594 140.434 32.5 140.34 32.625C140.246 32.7344 140.082 32.8281 139.848 32.9062C139.629 32.9844 139.332 33.0391 138.957 33.0703C138.582 33.1172 138.106 33.1406 137.527 33.1406C136.949 33.1406 136.473 33.1172 136.098 33.0703C135.723 33.0391 135.418 32.9844 135.184 32.9062C134.965 32.8281 134.809 32.7344 134.715 32.625C134.621 32.5 134.574 32.3594 134.574 32.2031V11.2969C134.574 11.1406 134.613 11.0078 134.692 10.8984C134.77 10.7734 134.91 10.6719 135.113 10.5938C135.317 10.5156 135.574 10.4609 135.887 10.4297C136.215 10.3828 136.621 10.3594 137.106 10.3594C137.606 10.3594 138.02 10.3828 138.348 10.4297C138.676 10.4609 138.926 10.5156 139.098 10.5938C139.285 10.6719 139.418 10.7734 139.496 10.8984C139.574 11.0078 139.613 11.1406 139.613 11.2969V13.7109C140.77 12.4609 141.942 11.5234 143.129 10.8984C144.332 10.2734 145.582 9.96094 146.879 9.96094C148.301 9.96094 149.496 10.1953 150.465 10.6641C151.449 11.1328 152.238 11.7734 152.832 12.5859C153.442 13.3828 153.879 14.3203 154.145 15.3984C154.41 16.4766 154.543 17.7734 154.543 19.2891V32.2031ZM173.502 33L170.971 40.4062C170.83 40.7969 170.448 41.0781 169.823 41.25C169.198 41.4219 168.283 41.5078 167.08 41.5078C166.455 41.5078 165.955 41.4766 165.58 41.4141C165.205 41.3672 164.924 41.2812 164.737 41.1562C164.549 41.0312 164.448 40.875 164.432 40.6875C164.416 40.5 164.463 40.2734 164.573 40.0078L167.362 33C167.158 32.9062 166.971 32.7656 166.799 32.5781C166.643 32.375 166.526 32.1641 166.448 31.9453L159.252 12.7266C159.049 12.1797 158.948 11.7656 158.948 11.4844C158.948 11.1875 159.041 10.9609 159.229 10.8047C159.416 10.6328 159.729 10.5156 160.166 10.4531C160.619 10.3906 161.213 10.3594 161.948 10.3594C162.619 10.3594 163.151 10.375 163.541 10.4062C163.932 10.4219 164.237 10.4766 164.455 10.5703C164.674 10.6641 164.838 10.8125 164.948 11.0156C165.057 11.2031 165.166 11.4766 165.276 11.8359L170.198 25.8281H170.268L174.768 11.5547C174.862 11.1484 174.979 10.8828 175.119 10.7578C175.276 10.6172 175.526 10.5156 175.869 10.4531C176.213 10.3906 176.815 10.3594 177.674 10.3594C178.346 10.3594 178.901 10.3906 179.338 10.4531C179.791 10.5156 180.119 10.6328 180.323 10.8047C180.541 10.9766 180.651 11.2109 180.651 11.5078C180.651 11.7891 180.588 12.125 180.463 12.5156L173.502 33ZM200.43 26.2969C200.43 27.4844 200.203 28.5312 199.75 29.4375C199.313 30.3438 198.688 31.1016 197.875 31.7109C197.063 32.3203 196.102 32.7734 194.992 33.0703C193.883 33.3828 192.68 33.5391 191.383 33.5391C190.602 33.5391 189.852 33.4766 189.133 33.3516C188.43 33.2422 187.797 33.1016 187.235 32.9297C186.672 32.7422 186.203 32.5547 185.828 32.3672C185.453 32.1797 185.18 32.0078 185.008 31.8516C184.836 31.6797 184.703 31.4219 184.61 31.0781C184.516 30.7188 184.469 30.1953 184.469 29.5078C184.469 29.0547 184.485 28.6953 184.516 28.4297C184.547 28.1484 184.594 27.9297 184.657 27.7734C184.719 27.6016 184.797 27.4922 184.891 27.4453C184.985 27.3828 185.102 27.3516 185.242 27.3516C185.414 27.3516 185.664 27.4531 185.992 27.6562C186.336 27.8438 186.758 28.0547 187.258 28.2891C187.758 28.5234 188.336 28.7422 188.992 28.9453C189.664 29.1484 190.422 29.25 191.266 29.25C191.797 29.25 192.266 29.1953 192.672 29.0859C193.094 28.9766 193.453 28.8203 193.75 28.6172C194.063 28.4141 194.297 28.1562 194.453 27.8438C194.61 27.5312 194.688 27.1719 194.688 26.7656C194.688 26.2969 194.539 25.8984 194.242 25.5703C193.961 25.2266 193.578 24.9297 193.094 24.6797C192.625 24.4297 192.086 24.1953 191.477 23.9766C190.883 23.7578 190.266 23.5156 189.625 23.25C189 22.9844 188.383 22.6797 187.774 22.3359C187.18 21.9922 186.641 21.5703 186.157 21.0703C185.688 20.5703 185.305 19.9688 185.008 19.2656C184.727 18.5625 184.586 17.7188 184.586 16.7344C184.586 15.7344 184.782 14.8203 185.172 13.9922C185.563 13.1484 186.125 12.4297 186.86 11.8359C187.594 11.2422 188.485 10.7812 189.532 10.4531C190.594 10.125 191.782 9.96094 193.094 9.96094C193.75 9.96094 194.383 10.0078 194.992 10.1016C195.617 10.1953 196.18 10.3125 196.68 10.4531C197.18 10.5938 197.602 10.75 197.946 10.9219C198.289 11.0781 198.532 11.2188 198.672 11.3438C198.828 11.4531 198.938 11.5703 199 11.6953C199.063 11.8047 199.11 11.9453 199.141 12.1172C199.172 12.2734 199.196 12.4766 199.211 12.7266C199.242 12.9609 199.258 13.2578 199.258 13.6172C199.258 14.0391 199.242 14.3828 199.211 14.6484C199.196 14.9141 199.157 15.125 199.094 15.2812C199.047 15.4375 198.977 15.5469 198.883 15.6094C198.789 15.6562 198.68 15.6797 198.555 15.6797C198.414 15.6797 198.196 15.6016 197.899 15.4453C197.602 15.2734 197.227 15.0938 196.774 14.9062C196.336 14.7188 195.821 14.5469 195.227 14.3906C194.649 14.2188 193.985 14.1328 193.235 14.1328C192.703 14.1328 192.242 14.1875 191.852 14.2969C191.461 14.4062 191.141 14.5625 190.891 14.7656C190.641 14.9688 190.453 15.2109 190.328 15.4922C190.203 15.7578 190.141 16.0469 190.141 16.3594C190.141 16.8438 190.289 17.25 190.586 17.5781C190.883 17.9062 191.274 18.1953 191.758 18.4453C192.242 18.6953 192.789 18.9297 193.399 19.1484C194.024 19.3672 194.649 19.6094 195.274 19.875C195.914 20.125 196.539 20.4219 197.149 20.7656C197.774 21.1094 198.328 21.5312 198.813 22.0312C199.297 22.5312 199.688 23.1328 199.985 23.8359C200.282 24.5234 200.43 25.3438 200.43 26.2969Z" fill="black"/>
</svg>
